<?xml version="1.0" encoding="utf-8"?>
<svg version="1.1" xmlns:xlink="http://www.w3.org/1999/xlink" width="28px" height="27px" xmlns="http://www.w3.org/2000/svg">
  <g transform="matrix(1 0 0 1 -1325 -481 )">
    <path d="M 5.09090909090901 19.6363636363636  L 7.63636363636374 19.6363636363636  L 7.63636363636374 22.0909090909091  L 5.09090909090901 22.0909090909091  L 5.09090909090901 19.6363636363636  Z M 5.09090909090901 4.90909090909093  L 7.63636363636374 4.90909090909093  L 7.63636363636374 7.36363636363637  L 5.09090909090901 7.36363636363637  L 5.09090909090901 4.90909090909093  Z M 20.3636363636363 4.90909090909093  L 22.909090909091 4.90909090909093  L 22.909090909091 7.36363636363637  L 20.3636363636363 7.36363636363637  L 20.3636363636363 4.90909090909093  Z M 2.5454545454545 17.1818181818181  L 2.5454545454545 24.5262784090909  L 10.1818181818182 24.5262784090909  L 10.1818181818182 17.1818181818181  L 2.5454545454545 17.1818181818181  Z M 2.5454545454545 2.45454545454544  L 2.5454545454545 9.81818181818181  L 10.1818181818182 9.81818181818181  L 10.1818181818182 2.45454545454544  L 2.5454545454545 2.45454545454544  Z M 17.8181818181818 2.45454545454544  L 17.8181818181818 9.81818181818181  L 25.4545454545455 9.81818181818181  L 25.4545454545455 2.45454545454544  L 17.8181818181818 2.45454545454544  Z M 0 14.7272727272727  L 13 14.7272727272727  L 13 27  L 0 27  L 0 14.7272727272727  Z M 20.3636363636363 24.5454545454545  L 22.909090909091 24.5454545454545  L 22.909090909091 27  L 20.3636363636363 27  L 20.3636363636363 24.5454545454545  Z M 25.4545454545455 24.5454545454545  L 28 24.5454545454545  L 28 27  L 25.4545454545455 27  L 25.4545454545455 24.5454545454545  Z M 25.4545454545455 14.7272727272727  L 28 14.7272727272727  L 28 22.0909090909091  L 20.3636363636363 22.0909090909091  L 20.3636363636363 19.6363636363636  L 17.8181818181818 19.6363636363636  L 17.8181818181818 27  L 15 27  L 15 14.7272727272727  L 22.909090909091 14.7272727272727  L 22.909090909091 17.1818181818181  L 25.4545454545455 17.1818181818181  L 25.4545454545455 14.7272727272727  Z M 0 0  L 13 0  L 13 12.2727272727273  L 0 12.2727272727273  L 0 0  Z M 15 0  L 28 0  L 28 12.2727272727273  L 15 12.2727272727273  L 15 0  Z " fill-rule="nonzero" fill="#000000" stroke="none" transform="matrix(1 0 0 1 1325 481 )" />
  </g>
</svg>